<svg id="_0" data-name="0" xmlns="http://www.w3.org/2000/svg" viewBox="0 0 154.23 154.23"><defs><style>.cls-1{fill:#014f86;}.cls-2,.cls-3,.cls-4{fill:none;stroke-linecap:round;stroke-linejoin:round;}.cls-2,.cls-5{stroke:#fff;}.cls-2{stroke-width:0.71px;}.cls-3,.cls-4{stroke:gray;}.cls-3{stroke-width:0.5px;}.cls-4{stroke-width:0.2px;}.cls-5{fill:#fff;stroke-miterlimit:10;fill-rule:evenodd;}</style></defs><title>Disk 1</title><g id="CIRCLE"><circle class="cls-1" cx="77.11" cy="77.11" r="74.63"/><path class="cls-1" d="M159.63,85.08A74.63,74.63,0,1,0,85,159.71,74.63,74.63,0,0,0,159.63,85.08ZM85,8.32A76.76,76.76,0,1,1,8.24,85.08,76.75,76.75,0,0,1,85,8.32Z" transform="translate(-7.89 -7.97)"/><circle class="cls-2" cx="77.11" cy="77.11" r="76.76"/><circle class="cls-3" cx="77.11" cy="77.11" r="74.63"/></g><g id="ARC"><path class="cls-2" d="M84.57,23.24A61.85,61.85,0,0,0,23.16,84.65" transform="translate(-7.89 -7.97)"/></g><g id="ARC-2" data-name="ARC"><path class="cls-4" d="M82.87,31.81A53.33,53.33,0,0,0,31.73,83" transform="translate(-7.89 -7.97)"/></g><g id="ARC-3" data-name="ARC"><path class="cls-2" d="M23.16,85.51A61.81,61.81,0,0,0,41,128.5" transform="translate(-7.89 -7.97)"/></g><g id="ARC-4" data-name="ARC"><path class="cls-2" d="M41,128.5a61.87,61.87,0,0,0,43.6,18.42" transform="translate(-7.89 -7.97)"/></g><g id="ARC-5" data-name="ARC"><path class="cls-2" d="M85.43,146.92a61.85,61.85,0,0,0,61.41-61.41" transform="translate(-7.89 -7.97)"/></g><g id="ARC-6" data-name="ARC"><path class="cls-4" d="M87.13,138.35a53.33,53.33,0,0,0,51.14-51.14" transform="translate(-7.89 -7.97)"/></g><g id="ARC-7" data-name="ARC"><path class="cls-2" d="M146.84,84.65a61.87,61.87,0,0,0-18.42-43.6" transform="translate(-7.89 -7.97)"/></g><g id="ARC-8" data-name="ARC"><path class="cls-2" d="M128.42,41.05a61.81,61.81,0,0,0-43-17.81" transform="translate(-7.89 -7.97)"/></g><g id="ARC-9" data-name="ARC"><path class="cls-2" d="M31.73,87.21a53.33,53.33,0,0,0,51.14,51.14" transform="translate(-7.89 -7.97)"/></g><g id="ARC-10" data-name="ARC"><path class="cls-4" d="M38.1,86.15A46.91,46.91,0,0,0,83.93,132" transform="translate(-7.89 -7.97)"/></g><g id="ARC-11" data-name="ARC"><path class="cls-2" d="M138.27,83A53.33,53.33,0,0,0,87.13,31.81" transform="translate(-7.89 -7.97)"/></g><g id="ARC-12" data-name="ARC"><path class="cls-4" d="M131.9,84A46.91,46.91,0,0,0,86.07,38.18" transform="translate(-7.89 -7.97)"/></g><g id="ARC-13" data-name="ARC"><path class="cls-2" d="M51.83,51.91a46.59,46.59,0,0,0-9.3,13.25" transform="translate(-7.89 -7.97)"/></g><g id="ARC-14" data-name="ARC"><path class="cls-2" d="M40.9,69.1A46.65,46.65,0,0,0,38.1,84" transform="translate(-7.89 -7.97)"/></g><g id="ARC-15" data-name="ARC"><path class="cls-2" d="M86.07,132a46.84,46.84,0,0,0,15.86-3.15" transform="translate(-7.89 -7.97)"/></g><g id="ARC-16" data-name="ARC"><path class="cls-2" d="M105.83,127.11a46.59,46.59,0,0,0,12.34-8.86" transform="translate(-7.89 -7.97)"/></g><g id="CIRCLE-2" data-name="CIRCLE"><path class="cls-2" d="M44.49,85.08A40.51,40.51,0,1,1,85,125.59,40.5,40.5,0,0,1,44.49,85.08Z" transform="translate(-7.89 -7.97)"/></g><g id="CIRCLE-3" data-name="CIRCLE"><path class="cls-4" d="M21,85.08a64,64,0,1,1,64,64,64,64,0,0,1-64-64Z" transform="translate(-7.89 -7.97)"/></g><g id="CIRCLE-4" data-name="CIRCLE"><path class="cls-2" d="M29.56,85.08a2.13,2.13,0,1,1,2.13,2.13,2.13,2.13,0,0,1-2.13-2.13Z" transform="translate(-7.89 -7.97)"/></g><g id="CIRCLE-5" data-name="CIRCLE"><path class="cls-2" d="M136.18,85.08a2.13,2.13,0,1,1,2.13,2.13,2.13,2.13,0,0,1-2.13-2.13Z" transform="translate(-7.89 -7.97)"/></g><g id="HATCH"><path class="cls-5" d="M133,85.08a1.07,1.07,0,1,0-1.07,1.07A1.07,1.07,0,0,0,133,85.08Z" transform="translate(-7.89 -7.97)"/></g><g id="CIRCLE-6" data-name="CIRCLE"><path class="cls-2" d="M130.85,85.08a1.07,1.07,0,1,1,1.06,1.07,1.06,1.06,0,0,1-1.06-1.07Z" transform="translate(-7.89 -7.97)"/></g><g id="HATCH-2" data-name="HATCH"><path class="cls-5" d="M39.15,85.08a1.07,1.07,0,1,0-1.06,1.07,1.06,1.06,0,0,0,1.06-1.07Z" transform="translate(-7.89 -7.97)"/></g><g id="CIRCLE-7" data-name="CIRCLE"><path class="cls-2" d="M37,85.08a1.07,1.07,0,1,1,1.07,1.07A1.07,1.07,0,0,1,37,85.08Z" transform="translate(-7.89 -7.97)"/></g><g id="HATCH-3" data-name="HATCH"><path class="cls-5" d="M87.13,138.39A2.13,2.13,0,1,0,85,140.52a2.13,2.13,0,0,0,2.13-2.13Z" transform="translate(-7.89 -7.97)"/></g><g id="CIRCLE-8" data-name="CIRCLE"><path class="cls-2" d="M82.87,138.39A2.13,2.13,0,1,1,85,140.52a2.13,2.13,0,0,1-2.13-2.13Z" transform="translate(-7.89 -7.97)"/></g><g id="HATCH-4" data-name="HATCH"><path class="cls-5" d="M87.13,31.77A2.13,2.13,0,1,0,85,33.9a2.13,2.13,0,0,0,2.13-2.13Z" transform="translate(-7.89 -7.97)"/></g><g id="CIRCLE-9" data-name="CIRCLE"><path class="cls-2" d="M82.87,31.77A2.13,2.13,0,1,1,85,33.9a2.13,2.13,0,0,1-2.13-2.13Z" transform="translate(-7.89 -7.97)"/></g><g id="CIRCLE-10" data-name="CIRCLE"><path class="cls-2" d="M83.93,132A1.07,1.07,0,1,1,85,133.06,1.06,1.06,0,0,1,83.93,132Z" transform="translate(-7.89 -7.97)"/></g><g id="CIRCLE-11" data-name="CIRCLE"><path class="cls-2" d="M83.93,38.17A1.07,1.07,0,1,1,85,39.23a1.07,1.07,0,0,1-1.07-1.06Z" transform="translate(-7.89 -7.97)"/></g><g id="HATCH-5" data-name="HATCH"><path class="cls-5" d="M147.26,85.08h0ZM85.43,146.92h0Z" transform="translate(-7.89 -7.97)"/></g><g id="CIRCLE-12" data-name="CIRCLE"><path class="cls-2" d="M84.57,146.92a.43.43,0,1,1,.43.42.43.43,0,0,1-.43-.42Z" transform="translate(-7.89 -7.97)"/></g><g id="HATCH-6" data-name="HATCH"><path class="cls-5" d="M85.43,23.24h0Z" transform="translate(-7.89 -7.97)"/></g><g id="CIRCLE-13" data-name="CIRCLE"><path class="cls-2" d="M84.57,23.24a.43.43,0,1,1,.43.43.42.42,0,0,1-.43-.43Z" transform="translate(-7.89 -7.97)"/></g><g id="CIRCLE-14" data-name="CIRCLE"><path class="cls-2" d="M146.41,85.08a.43.43,0,1,1,.43.43.43.43,0,0,1-.43-.43Z" transform="translate(-7.89 -7.97)"/></g><g id="HATCH-7" data-name="HATCH"><path class="cls-5" d="M23.59,85.08a.43.43,0,1,0-.43.43.43.43,0,0,0,.43-.43Z" transform="translate(-7.89 -7.97)"/></g><g id="CIRCLE-15" data-name="CIRCLE"><path class="cls-2" d="M22.74,85.08a.43.43,0,1,1,.42.43.42.42,0,0,1-.42-.43Z" transform="translate(-7.89 -7.97)"/></g><g id="ARC-17" data-name="ARC"><path class="cls-2" d="M83.93,38.18a46.84,46.84,0,0,0-15.86,3.15" transform="translate(-7.89 -7.97)"/></g><g id="ARC-18" data-name="ARC"><path class="cls-2" d="M64.18,43.07a46,46,0,0,0-12.35,8.84" transform="translate(-7.89 -7.97)"/></g><g id="ARC-19" data-name="ARC"><path class="cls-2" d="M118.17,118.25a46.59,46.59,0,0,0,9.3-13.25" transform="translate(-7.89 -7.97)"/></g><g id="ARC-20" data-name="ARC"><path class="cls-2" d="M129.11,101.06a47.14,47.14,0,0,0,2.79-14.91" transform="translate(-7.89 -7.97)"/></g><g id="HATCH-8" data-name="HATCH"><polygon class="cls-5" points="34.64 57.2 35.8 59.98 33.01 61.14 31.86 58.35 34.64 57.2 34.64 57.2"/></g><g id="LINE"><line class="cls-2" x1="31.85" y1="58.35" x2="34.64" y2="57.2"/></g><g id="LINE-2" data-name="LINE"><line class="cls-2" x1="34.64" y1="57.2" x2="35.8" y2="59.98"/></g><g id="LINE-3" data-name="LINE"><line class="cls-2" x1="35.8" y1="59.98" x2="33.01" y2="61.14"/></g><g id="LINE-4" data-name="LINE"><line class="cls-2" x1="31.85" y1="58.35" x2="33.01" y2="61.14"/></g><g id="HATCH-9" data-name="HATCH"><polygon class="cls-5" points="56.29 35.1 57.37 32.28 60.19 33.36 59.11 36.18 56.29 35.1 56.29 35.1"/></g><g id="LINE-5" data-name="LINE"><line class="cls-2" x1="56.29" y1="35.1" x2="57.37" y2="32.29"/></g><g id="LINE-6" data-name="LINE"><line class="cls-2" x1="57.37" y1="32.29" x2="60.19" y2="33.36"/></g><g id="LINE-7" data-name="LINE"><line class="cls-2" x1="60.19" y1="33.36" x2="59.11" y2="36.18"/></g><g id="LINE-8" data-name="LINE"><line class="cls-2" x1="56.29" y1="35.1" x2="59.11" y2="36.18"/></g><g id="HATCH-10" data-name="HATCH"><polygon class="cls-5" points="95.13 118.05 97.94 119.14 96.85 121.95 94.04 120.86 95.13 118.05 95.13 118.05"/></g><g id="LINE-9" data-name="LINE"><line class="cls-2" x1="95.13" y1="118.05" x2="97.94" y2="119.14"/></g><g id="LINE-10" data-name="LINE"><line class="cls-2" x1="97.94" y1="119.14" x2="96.85" y2="121.96"/></g><g id="LINE-11" data-name="LINE"><line class="cls-2" x1="96.85" y1="121.96" x2="94.04" y2="120.87"/></g><g id="LINE-12" data-name="LINE"><line class="cls-2" x1="94.04" y1="120.87" x2="95.13" y2="118.05"/></g><g id="HATCH-11" data-name="HATCH"><polygon class="cls-5" points="122.38 95.88 121.22 93.09 118.44 94.24 119.59 97.03 122.38 95.88 122.38 95.88"/></g><g id="LINE-13" data-name="LINE"><line class="cls-2" x1="118.44" y1="94.24" x2="119.59" y2="97.03"/></g><g id="LINE-14" data-name="LINE"><line class="cls-2" x1="119.59" y1="97.03" x2="122.38" y2="95.88"/></g><g id="LINE-15" data-name="LINE"><line class="cls-2" x1="122.38" y1="95.88" x2="121.22" y2="93.09"/></g><g id="LINE-16" data-name="LINE"><line class="cls-2" x1="121.22" y1="93.09" x2="118.44" y2="94.24"/></g></svg>