<svg id="_0" data-name="0" xmlns="http://www.w3.org/2000/svg" viewBox="0 0 154.23 154.23">
<defs>
<style>
.cls-1{fill:#101749;}
.cls-2{fill:#fff;}
.cls-3,.cls-4,.cls-5,.cls-6{fill:none;}
.cls-3,.cls-6{stroke:#fff;}
.cls-3,.cls-4,.cls-5{stroke-linecap:round;stroke-linejoin:round;}
.cls-3{stroke-width:0.71px;}.cls-4,.cls-5{stroke:gray;}
.cls-4{stroke-width:0.5px;}.cls-5{stroke-width:0.2px;}
.cls-6{stroke-miterlimit:10;}
</style>
</defs>
<title>Disk 3</title><g id="LINE"><path class="cls-1" d="M83.93,132a1.07,1.07,0,0,1,2.14,0h0a1.07,1.07,0,0,1-2.14,0Z" transform="translate(-7.89 -7.97)"/><path class="cls-1" d="M83.93,38.18h0a1.07,1.07,0,1,1,2.14,0h0a1.07,1.07,0,0,1-2.14,0Z" transform="translate(-7.89 -7.97)"/><path class="cls-1" d="M31.73,83a2.13,2.13,0,0,1,0,4.26h0a2.13,2.13,0,0,1,0-4.26Z" transform="translate(-7.89 -7.97)"/><path class="cls-1" d="M138.31,83a2.13,2.13,0,0,1,0,4.26h0a2.13,2.13,0,0,1,0-4.26Z" transform="translate(-7.89 -7.97)"/><path class="cls-1" d="M42.53,65.16a46.59,46.59,0,0,1,9.3-13.25,46,46,0,0,1,12.35-8.84L67,44.15l1.08-2.82a46.84,46.84,0,0,1,15.86-3.15,1.07,1.07,0,0,0,2.14,0A46.91,46.91,0,0,1,131.9,84a1.07,1.07,0,0,0,0,2.14,47.14,47.14,0,0,1-2.79,14.91l-2.79,1.15,1.15,2.79a46.9,46.9,0,0,1-21.64,22.11L103,126l-1.09,2.81A46.84,46.84,0,0,1,86.07,132a1.07,1.07,0,0,0-2.14,0A46.91,46.91,0,0,1,38.1,86.15a1.07,1.07,0,0,0,0-2.14A46.65,46.65,0,0,1,40.9,69.1L43.68,68Zm83,19.92A40.51,40.51,0,1,0,85,125.59,40.5,40.5,0,0,0,125.51,85.08Z" transform="translate(-7.89 -7.97)"/><path class="cls-1" d="M82.87,31.81a2.13,2.13,0,0,0,4.26,0A53.33,53.33,0,0,1,138.27,83a2.13,2.13,0,0,0,0,4.26,53.33,53.33,0,0,1-51.14,51.14,2.13,2.13,0,0,0-4.26,0A53.33,53.33,0,0,1,31.73,87.21a2.13,2.13,0,0,0,0-4.26A53.33,53.33,0,0,1,82.87,31.81ZM38.09,86.15h0A46.91,46.91,0,0,0,83.93,132h0a1.07,1.07,0,0,0,2.14,0h0a46.84,46.84,0,0,0,15.86-3.15l2.81,1.09,1.09-2.81A46.9,46.9,0,0,0,127.47,105l2.79-1.16-1.15-2.78a47.14,47.14,0,0,0,2.79-14.91h0a1.07,1.07,0,1,0,0-2.14h0A46.91,46.91,0,0,0,86.07,38.18h0a1.07,1.07,0,1,0-2.14,0h0a46.84,46.84,0,0,0-15.86,3.15l-2.81-1.08-1.08,2.82a46,46,0,0,0-12.35,8.84,46.59,46.59,0,0,0-9.3,13.25l-2.79,1.16L40.9,69.1A46.65,46.65,0,0,0,38.1,84h0a1.07,1.07,0,1,0,0,2.14Z" transform="translate(-7.89 -7.97)"/><path class="cls-1" d="M23.16,84.65A61.85,61.85,0,0,1,84.57,23.24a.43.43,0,0,0,.86,0,61.85,61.85,0,0,1,61.41,61.41.43.43,0,1,0,0,.86,61.85,61.85,0,0,1-61.41,61.41.43.43,0,0,0-.86,0A61.85,61.85,0,0,1,23.16,85.51a.43.43,0,1,0,0-.86Zm59.71,53.7v0a2.13,2.13,0,0,0,4.26,0v0a53.33,53.33,0,0,0,51.14-51.14h0a2.13,2.13,0,0,0,0-4.26h0A53.33,53.33,0,0,0,87.13,31.81v0a2.13,2.13,0,1,0-4.26,0v0A53.33,53.33,0,0,0,31.73,83h0a2.13,2.13,0,0,0,0,4.26h0A53.33,53.33,0,0,0,82.87,138.35Z" transform="translate(-7.89 -7.97)"/><path class="cls-1" d="M23.16,85.51a61.85,61.85,0,0,0,61.41,61.41.43.43,0,0,0,.86,0,61.85,61.85,0,0,0,61.41-61.41.43.43,0,0,0,0-.86A61.85,61.85,0,0,0,85.43,23.24a.43.43,0,0,0-.86,0A61.85,61.85,0,0,0,23.16,84.65a.43.43,0,0,0,0,.86ZM21,85.08a64,64,0,1,1,64,64A64,64,0,0,1,21,85.08Z" transform="translate(-7.89 -7.97)"/><path class="cls-1" d="M85,10.45A74.63,74.63,0,1,1,10.37,85.08,74.63,74.63,0,0,1,85,10.45Zm64,74.63a64,64,0,1,0-64,64A64,64,0,0,0,149,85.08Z" transform="translate(-7.89 -7.97)"/><path class="cls-1" d="M8.24,85.08A76.76,76.76,0,1,1,85,161.84,76.75,76.75,0,0,1,8.24,85.08ZM85,10.45a74.63,74.63,0,1,0,74.63,74.63A74.63,74.63,0,0,0,85,10.45Z" transform="translate(-7.89 -7.97)"/><path class="cls-2" d="M131.91,84a1.07,1.07,0,1,1,0,2.14h0a1.07,1.07,0,0,1,0-2.14Z" transform="translate(-7.89 -7.97)"/><polygon class="cls-2" points="121.22 93.09 122.37 95.87 119.58 97.03 118.43 94.24 121.22 93.09"/><rect class="cls-2" x="102.37" y="126.46" width="3.01" height="3.01" transform="translate(-60.88 170.57) rotate(-68.8)"/><path class="cls-2" d="M82.87,31.77a2.13,2.13,0,1,1,4.26,0v0a2.13,2.13,0,0,1-4.26,0Z" transform="translate(-7.89 -7.97)"/><path class="cls-2" d="M82.87,138.35a2.13,2.13,0,0,1,4.26,0v0a2.13,2.13,0,0,1-4.26,0Z" transform="translate(-7.89 -7.97)"/><polygon class="cls-2" points="60.18 33.36 59.1 36.18 56.29 35.1 57.37 32.28 60.18 33.36"/><polygon class="cls-2" points="34.64 57.19 35.79 59.98 33.01 61.13 31.85 58.35 34.64 57.19"/><path class="cls-2" d="M37,85.08A1.07,1.07,0,0,1,38.09,84h0a1.07,1.07,0,0,1,0,2.14h0A1.07,1.07,0,0,1,37,85.08Z" transform="translate(-7.89 -7.97)"/><path class="cls-2" d="M23.16,84.65a.43.43,0,1,1-.42.43A.43.43,0,0,1,23.16,84.65Z" transform="translate(-7.89 -7.97)"/><circle class="cls-3" cx="77.11" cy="77.11" r="76.76"/><circle class="cls-4" cx="77.11" cy="77.11" r="74.63"/><path class="cls-3" d="M84.57,23.24A61.85,61.85,0,0,0,23.16,84.65" transform="translate(-7.89 -7.97)"/><path class="cls-5" d="M82.87,31.81A53.33,53.33,0,0,0,31.73,83" transform="translate(-7.89 -7.97)"/><path class="cls-3" d="M23.16,85.51A61.81,61.81,0,0,0,41,128.5" transform="translate(-7.89 -7.97)"/><path class="cls-3" d="M41,128.5a61.87,61.87,0,0,0,43.6,18.42" transform="translate(-7.89 -7.97)"/><path class="cls-3" d="M85.43,146.92a61.85,61.85,0,0,0,61.41-61.41" transform="translate(-7.89 -7.97)"/><path class="cls-5" d="M87.13,138.35a53.33,53.33,0,0,0,51.14-51.14" transform="translate(-7.89 -7.97)"/><path class="cls-3" d="M146.84,84.65a61.87,61.87,0,0,0-18.42-43.6" transform="translate(-7.89 -7.97)"/><path class="cls-3" d="M128.42,41.05a61.81,61.81,0,0,0-43-17.81" transform="translate(-7.89 -7.97)"/><path class="cls-3" d="M31.73,87.21a53.33,53.33,0,0,0,51.14,51.14" transform="translate(-7.89 -7.97)"/><path class="cls-5" d="M38.1,86.15A46.91,46.91,0,0,0,83.93,132" transform="translate(-7.89 -7.97)"/><path class="cls-3" d="M138.27,83A53.33,53.33,0,0,0,87.13,31.81" transform="translate(-7.89 -7.97)"/><path class="cls-5" d="M131.9,84A46.91,46.91,0,0,0,86.07,38.18" transform="translate(-7.89 -7.97)"/><path class="cls-3" d="M51.83,51.91a46.59,46.59,0,0,0-9.3,13.25" transform="translate(-7.89 -7.97)"/><path class="cls-3" d="M40.9,69.1A46.65,46.65,0,0,0,38.1,84" transform="translate(-7.89 -7.97)"/><path class="cls-3" d="M86.07,132a46.84,46.84,0,0,0,15.86-3.15" transform="translate(-7.89 -7.97)"/><path class="cls-3" d="M105.83,127.11a46.59,46.59,0,0,0,12.34-8.86" transform="translate(-7.89 -7.97)"/><circle class="cls-3" cx="77.11" cy="77.11" r="40.51"/><circle class="cls-5" cx="77.11" cy="77.11" r="63.97"/><path class="cls-3" d="M31.73,87.21h0a2.13,2.13,0,0,1,0-4.26h0a2.13,2.13,0,0,1,0,4.26Z" transform="translate(-7.89 -7.97)"/><path class="cls-3" d="M138.27,87.21a2.13,2.13,0,0,1,0-4.26h0a2.13,2.13,0,0,1,0,4.26Z" transform="translate(-7.89 -7.97)"/><path class="cls-3" d="M131.9,86.15a1.07,1.07,0,0,1,0-2.14h0a1.07,1.07,0,1,1,0,2.14Z" transform="translate(-7.89 -7.97)"/><path class="cls-3" d="M38.1,86.15h0a1.07,1.07,0,1,1,0-2.14h0a1.07,1.07,0,0,1,0,2.14Z" transform="translate(-7.89 -7.97)"/><path class="cls-3" d="M87.13,138.35v0a2.13,2.13,0,0,1-4.26,0v0a2.13,2.13,0,0,1,4.26,0Z" transform="translate(-7.89 -7.97)"/><path class="cls-3" d="M82.87,31.81v0a2.13,2.13,0,1,1,4.26,0v0a2.13,2.13,0,0,1-4.26,0Z" transform="translate(-7.89 -7.97)"/><path class="cls-3" d="M86.07,132h0a1.07,1.07,0,0,1-2.14,0h0a1.07,1.07,0,0,1,2.14,0Z" transform="translate(-7.89 -7.97)"/><path class="cls-3" d="M83.93,38.18h0a1.07,1.07,0,1,1,2.14,0h0a1.07,1.07,0,0,1-2.14,0Z" transform="translate(-7.89 -7.97)"/><line class="cls-6" x1="138.52" y1="77.11" x2="139.37" y2="77.11"/><line class="cls-6" x1="76.68" y1="138.95" x2="77.54" y2="138.95"/><path class="cls-3" d="M84.57,146.92a.43.43,0,1,1,.43.42A.43.43,0,0,1,84.57,146.92Z" transform="translate(-7.89 -7.97)"/><line class="cls-6" x1="76.68" y1="15.27" x2="77.54" y2="15.27"/><path class="cls-3" d="M84.57,23.24a.43.43,0,1,1,.43.43A.42.42,0,0,1,84.57,23.24Z" transform="translate(-7.89 -7.97)"/><path class="cls-3" d="M146.41,85.08a.43.43,0,1,1,.43.43A.43.43,0,0,1,146.41,85.08Z" transform="translate(-7.89 -7.97)"/><path class="cls-3" d="M23.16,85.51a.43.43,0,1,1,.43-.43A.42.42,0,0,1,23.16,85.51Z" transform="translate(-7.89 -7.97)"/><path class="cls-3" d="M83.93,38.18a46.84,46.84,0,0,0-15.86,3.15" transform="translate(-7.89 -7.97)"/><path class="cls-3" d="M64.18,43.07a46,46,0,0,0-12.35,8.84" transform="translate(-7.89 -7.97)"/><path class="cls-3" d="M118.17,118.25a46.59,46.59,0,0,0,9.3-13.25" transform="translate(-7.89 -7.97)"/><path class="cls-3" d="M129.11,101.06a47.14,47.14,0,0,0,2.79-14.91" transform="translate(-7.89 -7.97)"/><line class="cls-3" x1="31.85" y1="58.35" x2="34.64" y2="57.19"/><line class="cls-3" x1="34.64" y1="57.19" x2="35.79" y2="59.98"/><line class="cls-3" x1="35.79" y1="59.98" x2="33.01" y2="61.13"/><line class="cls-3" x1="31.85" y1="58.35" x2="33.01" y2="61.13"/><line class="cls-3" x1="56.29" y1="35.1" x2="57.37" y2="32.28"/><line class="cls-3" x1="57.37" y1="32.28" x2="60.18" y2="33.36"/><line class="cls-3" x1="60.18" y1="33.36" x2="59.1" y2="36.18"/><line class="cls-3" x1="56.29" y1="35.1" x2="59.1" y2="36.18"/><line class="cls-3" x1="95.13" y1="118.05" x2="97.94" y2="119.14"/><line class="cls-3" x1="97.94" y1="119.14" x2="96.85" y2="121.95"/><line class="cls-3" x1="96.85" y1="121.95" x2="94.04" y2="120.86"/><line class="cls-3" x1="94.04" y1="120.86" x2="95.13" y2="118.05"/><line class="cls-3" x1="118.43" y1="94.24" x2="119.58" y2="97.03"/><line class="cls-3" x1="119.58" y1="97.03" x2="122.37" y2="95.87"/><line class="cls-3" x1="122.37" y1="95.87" x2="121.22" y2="93.09"/><line class="cls-3" x1="121.22" y1="93.09" x2="118.43" y2="94.24"/></g></svg>