<svg xmlns="http://www.w3.org/2000/svg" viewBox="0 0 1004.51 302.34">
	<title>logo</title>
	<g id="Star">
		<path d="M182.36,338C639.2,182.72,878.15,111.58,871.79,116.67a71.46,71.46,0,0,1-16.53,10.17" transform="translate(-12.33 -35.66)"/>
		<polyline points="944.67 56.09 911.45 44.01 881.25 56.09 911.45 68.17"/>
		<polyline points="899.2 10.62 887.12 43.84 899.2 74.05 911.28 43.84"/>
		<polyline points="853.74 56.09 886.96 68.17 917.16 56.09 886.96 44.01"/>
		<polyline points="899.2 101.56 911.28 68.33 899.2 38.13 887.12 68.33"/>
	</g>
	<g id="Text">
		<path d="M52.37,87Q62.54,92.64,72.5,98.44t19.91,11.48c-2,1.32-3.9,2.5-5.8,3.56l-6,3.34q-6.9-3.94-13.95-8t-14-8q-7.22,3.94-14.28,8.1t-14.27,8.31v32.49c1.16.66,2.37,1.32,3.61,2s2.44,1.32,3.61,2q5.25,3,10.5,6.24T52.37,166l14.28-8.2q7-4.05,13.95-8.21l11.81,6.9q-10,5.9-19.86,11.65T52.7,179.83q-10.39-5.91-20.29-11.65L12.33,156.53V110.25q10-5.91,20-11.65T52.37,87Z" transform="translate(-12.33 -35.66)"/>
		<path d="M182.22,109.92q-10,5.91-19.91,11.65t-20.13,11.65q-2.73-1.74-5.63-3.44l-5.85-3.45q6.88-4.15,14-8.2t13.94-8.21q-3.93-2.51-8-4.75l-8-4.44q-7.22,3.94-14.27,8.1T114,117.14v32.49q7.22,4.17,14.28,8.21t13.94,8.2q7.23-4.15,14.12-8.2t14.11-8.21l11.81,6.9q-10,5.9-19.91,11.59T142.18,179.5q-9.94-5.69-19.91-11.49t-20.12-11.48V110.25q8.41-4.92,17.28-10t17.5-10l2.46-1.58a18.62,18.62,0,0,1,2.47-1.37,1.91,1.91,0,0,1,1.58.27,18.78,18.78,0,0,0,2,1q9.18,5.47,18.54,10.78T182.22,109.92Z" transform="translate(-12.33 -35.66)"/>
		<path d="M192,35.66q3,1.76,5.91,3.34t5.9,3.55v125L192,174.48V35.66Z" transform="translate(-12.33 -35.66)"/>
		<path d="M297,109.92q-10,5.91-19.91,11.65t-20.13,11.65c-1.83-1.16-3.7-2.31-5.64-3.44l-5.85-3.45q6.9-4.15,13.95-8.2t14-8.21q-3.94-2.51-8-4.75t-8-4.44q-7.23,3.94-14.28,8.1t-14.28,8.31v32.49L243,157.84q7,4,13.95,8.2,7.21-4.15,14.11-8.2t14.11-8.21l11.82,6.9q-10,5.9-19.91,11.59T256.94,179.5Q247,173.82,237,168T216.9,156.53V110.25q8.41-4.92,17.28-10t17.51-10l2.46-1.58a19.18,19.18,0,0,1,2.46-1.37,1.94,1.94,0,0,1,1.59.27,18.53,18.53,0,0,0,2,1q9.19,5.47,18.54,10.78T297,109.92Z" transform="translate(-12.33 -35.66)"/>
		<path d="M346.75,88.37q7.44,4.17,14.93,8.54t14.93,8.86q2.52,1.53,5.09,2.84a28.86,28.86,0,0,1,4.76,3.06c-2,1-3.92,2.08-5.85,3.18s-3.81,2.22-5.64,3.39q-7.22-3.94-14.27-8t-13.95-8q-7.22,3.93-14.17,8t-14.38,8a17.52,17.52,0,0,0,2.13,1.42l2.13,1.2q7.44,4.48,14.94,8.7t14.93,8.7q6.45,3.72,12.85,7.27T378.25,153c1.32.81,2.68,1.63,4.11,2.47s2.79,1.65,4.1,2.46q-10,5.69-19.86,11.48t-19.85,11.49q-10.17-5.68-20-11.49t-20-11.48a45.92,45.92,0,0,1,5.8-3.56c2-1,4.05-2.17,6-3.33q6.89,4.16,13.94,8.2l14.28,8.2q3.93-2.51,8-4.75t8-4.76a39.14,39.14,0,0,0-3.45-2.14,37.45,37.45,0,0,1-3.44-2.13q-12.36-7.22-24.78-14.17t-24.78-14.38q0-3.5.11-6.89a62,62,0,0,0-.11-6.57q10.19-5.9,20.19-11.76T346.75,88.37Z" transform="translate(-12.33 -35.66)"/>
		<path d="M434.48,105.51c-1.17.81-2.31,1.55-3.44,2.24s-2.28,1.37-3.45,2q-5.25,3-10.5,6t-10.5,6.18q-3-1.74-6-3.44c-2-1.13-4-2.28-5.8-3.45q10-5.69,19.75-11.49t20-11.48m0-52.35a.29.29,0,0,1,.33-.33,53.05,53.05,0,0,0,5.63,3.55q2.91,1.59,5.86,3.34.21,9.63.11,18.92t-.11,18.49V172c-2,1-3.94,2.12-5.91,3.28s-3.94,2.26-5.91,3.29V39.71ZM446.2,92.06q6.89,3.93,13.78,8t13.79,8c-1.83,1.16-3.74,2.31-5.75,3.44s-3.92,2.28-5.74,3.45q-4.15-2.19-8.15-4.6t-7.93-4.59Z" transform="translate(-12.33 -35.66)"/>
		<path d="M481.28,102.68h0s4.32,2.47,6.15,3.6,3.68,2.28,5.58,3.45c-.08,3.72-.13,34.9-.17,37.56s0,5.16,0,7.49,0,4.69,0,7.06.09,5.12.17,8.26q-2.85,1.64-5.64,3.39t-6.07,3.39" transform="translate(-12.33 -35.66)"/>
		<path d="M543.44,87q10.17,5.91,20.18,11.65t20.18,11.65q-.54,22.75,0,45.95A1.27,1.27,0,0,1,583,156a3.17,3.17,0,0,0-.82-.44q-2.52-1.53-5.14-2.95c-1.75-1-3.54-1.93-5.36-3V121.08c0-.51,0-1.16.11-2a5.49,5.49,0,0,0-.11-2c0-.14-.15-.32-.44-.54a6.24,6.24,0,0,0-1-.6c-.37-.19-.73-.35-1.1-.5a6.74,6.74,0,0,1-.76-.33q-6.24-3.7-12.47-7.22t-12.47-7.22q-6.9,3.94-14,8.1t-14.28,8.31v32.49q6.45,3.94,13.08,7.72l13.5,7.71a6.09,6.09,0,0,0,.83.6,2.09,2.09,0,0,0,.82.38,2.16,2.16,0,0,0,.82-.38,6.07,6.07,0,0,1,1.15-.6c2.47-1.46,4.86-2.87,7.16-4.21s4.61-2.68,6.95-4c2,1,4,2.14,6,3.34s4,2.39,5.8,3.56q-6.89,3.93-14,8t-13.94,8q-10.19-5.91-20.13-11.65T503.4,156.53V110.25q9.95-5.69,19.91-11.54T543.44,87Zm40.36,69.58a88,88,0,0,0,0,13.78q-6.22-3.18-12.14-6.73t-11.81-7.05c2-1.17,3.93-2.26,5.9-3.29s3.94-2.11,5.91-3.28c2,1,4,2.12,6,3.28S581.69,155.5,583.8,156.53Z" transform="translate(-12.33 -35.66)"/>
		<path d="M590.8,38.21c2,1.16,3.94,2.28,5.91,3.33s3.94,2.25,5.91,3.56v125L590.8,177V38.21Z" transform="translate(-12.33 -35.66)"/>
		<polyline points="468.95 48.88 480.67 55.97 480.67 65.54 468.95 58.45"/>
		<path d="M747.08,248.57q-10,5.91-19.91,11.65T707,271.87c-1.83-1.16-3.7-2.31-5.64-3.44L695.55,265q6.9-4.16,14-8.2t14-8.21q-3.94-2.5-8-4.76t-8-4.43q-7.23,3.94-14.28,8.1t-14.28,8.31v32.49l14.28,8.21q7,4,13.95,8.2,7.22-4.15,14.11-8.2t14.11-8.21l11.82,6.89q-10,5.91-19.91,11.6T707,318.15q-10-5.7-19.91-11.49T667,295.17V248.9q8.41-4.92,17.28-10t17.51-10l2.46-1.58a18,18,0,0,1,2.46-1.37,1.94,1.94,0,0,1,1.59.27,18.53,18.53,0,0,0,2,1q9.2,5.47,18.54,10.78T747.08,248.57Z" transform="translate(-12.33 -35.66)"/>
		<path d="M796.85,225.6Q807,231.28,817,237.09t19.91,11.48c-2,1.32-3.91,2.5-5.8,3.56l-6,3.34q-6.89-3.94-13.94-8.05t-14-8q-7.23,3.94-14.28,8.1t-14.27,8.31v32.49c1.16.66,2.36,1.32,3.61,2s2.44,1.32,3.61,2q5.25,3,10.5,6.24t10.5,6.23q7.21-4.15,14.28-8.2t13.94-8.21l11.82,6.89q-10,5.91-19.86,11.66t-19.85,11.65q-10.39-5.91-20.3-11.65l-20.07-11.66V248.9q10-5.91,20-11.65T796.85,225.6Z" transform="translate(-12.33 -35.66)"/>
		<path d="M858.44,196.07v47.21a5.79,5.79,0,0,0,1.91-.82c.62-.4,1.19-.78,1.7-1.15q6.23-3.5,12.47-7.05t12.14-7.06q10.17,5.69,20.18,11.49T927,250.17v61a1,1,0,0,1-.82-.33c-.19-.22-.35-.33-.5-.33l-5.36-3c-1.75-1-3.46-2.06-5.14-3.23V261.33c0-.65,0-1.38.11-2.19a4.07,4.07,0,0,0-.11-1.75q-.21-.76-1.53-1.26a9.13,9.13,0,0,1-2.08-1q-6.23-3.51-12.3-7.11L887,240.66l-14.28,8.2q-7.05,4-14.27,8.21v47.2c-1.83,1.17-3.76,2.31-5.8,3.45s-4,2.28-6,3.44v-122Z" transform="translate(-12.33 -35.66)"/>
		<path d="M976.47,227.35q10.39,5.68,20.3,11.54t20.07,11.76q-.23,11.16-.11,22.21t.11,22.42v1.32a2.12,2.12,0,0,1-1,1,8.68,8.68,0,0,1-1.59.66q-9.18,5.46-18.59,10.83T976.8,319.9q-10.17-5.7-20.18-11.54T936.44,296.6q.21-11.93.1-22.43t-.1-20.89v-2.63a8.72,8.72,0,0,1,1.14-.82,9.58,9.58,0,0,1,1.48-.82q4.49-2.52,8.7-4.92t8.69-4.92q5.26-3.18,10.18-6T976.47,227.35Zm-28.22,30.19V290q7.21,4.17,14.28,8.21t13.94,8.2l12.58-7.22q6.13-3.5,12.37-7.22l.76-.38c.37-.18.75-.38,1.15-.6a8.2,8.2,0,0,0,1.09-.71,2.31,2.31,0,0,0,.6-.6,3.92,3.92,0,0,0,.11-1.75c-.07-.81-.11-1.54-.11-2.19V257.54q-6.88-4.16-14.11-8.31t-14.11-8.1q-7.21,3.94-14.27,8.1T948.25,257.54Z" transform="translate(-12.33 -35.66)"/>
	</g>
</svg>