<svg id="_0" data-name="0" xmlns="http://www.w3.org/2000/svg" viewBox="0 0 153.71 153.71"><defs><style>.cls-1{fill:none;stroke:gray;stroke-linecap:round;stroke-linejoin:round;stroke-width:0.71px;}.cls-2{fill:gray;}</style></defs><title>Pause grey</title><g id="LINE"><line class="cls-1" x1="22.76" y1="131.72" x2="22.76" y2="23.53"/></g><g id="LINE-2" data-name="LINE"><line class="cls-1" x1="22.76" y1="23.53" x2="130.95" y2="23.53"/></g><g id="LINE-3" data-name="LINE"><line class="cls-1" x1="130.95" y1="23.53" x2="130.95" y2="131.72"/></g><g id="LINE-4" data-name="LINE"><line class="cls-1" x1="130.95" y1="131.72" x2="22.76" y2="131.72"/></g><g id="LINE-5" data-name="LINE"><line class="cls-1" x1="0.35" y1="76.85" x2="76.85" y2="153.35"/></g><g id="LINE-6" data-name="LINE"><line class="cls-1" x1="76.85" y1="153.35" x2="153.35" y2="76.85"/></g><g id="LINE-7" data-name="LINE"><line class="cls-1" x1="153.35" y1="76.85" x2="76.85" y2="0.35"/></g><g id="LINE-8" data-name="LINE"><line class="cls-1" x1="76.85" y1="0.35" x2="0.35" y2="76.85"/></g><g id="LINE-9" data-name="LINE"><rect class="cls-2" x="55.22" y="45.17" width="16.22" height="64.91"/></g><g id="LINE-10" data-name="LINE"><rect class="cls-2" x="82.26" y="45.17" width="16.23" height="64.91"/></g><g id="LINE-11" data-name="LINE"><line class="cls-1" x1="33.58" y1="120.9" x2="11.94" y2="120.9"/></g><g id="LINE-12" data-name="LINE"><line class="cls-1" x1="11.94" y1="120.9" x2="11.94" y2="142.54"/></g><g id="LINE-13" data-name="LINE"><line class="cls-1" x1="11.94" y1="142.54" x2="33.58" y2="142.54"/></g><g id="LINE-14" data-name="LINE"><line class="cls-1" x1="33.58" y1="142.54" x2="33.58" y2="120.9"/></g><g id="LINE-15" data-name="LINE"><line class="cls-1" x1="120.13" y1="12.71" x2="141.77" y2="12.71"/></g><g id="LINE-16" data-name="LINE"><line class="cls-1" x1="141.77" y1="12.71" x2="141.77" y2="34.35"/></g><g id="LINE-17" data-name="LINE"><line class="cls-1" x1="141.77" y1="34.35" x2="120.13" y2="34.35"/></g><g id="LINE-18" data-name="LINE"><line class="cls-1" x1="120.13" y1="34.35" x2="120.13" y2="12.71"/></g></svg>